<?xml version="1.0" encoding="UTF-8" standalone="no"?>
<!-- Created with Inkscape (http://www.inkscape.org/) -->

<svg
   xmlns:dc="http://purl.org/dc/elements/1.1/"
   xmlns:cc="http://creativecommons.org/ns#"
   xmlns:rdf="http://www.w3.org/1999/02/22-rdf-syntax-ns#"
   xmlns:svg="http://www.w3.org/2000/svg"
   xmlns="http://www.w3.org/2000/svg"
   xmlns:sodipodi="http://sodipodi.sourceforge.net/DTD/sodipodi-0.dtd"
   xmlns:inkscape="http://www.inkscape.org/namespaces/inkscape"
   width="135.46666mm"
   height="104.3059mm"
   viewBox="0 0 135.46666 104.3059"
   version="1.1"
   id="svg574"
   inkscape:version="0.92.1 r15371"
   sodipodi:docname="laguardia.svg">
  <defs
     id="defs568">
    <clipPath
       clipPathUnits="userSpaceOnUse"
       id="clipPath262">
      <path
         d="m 104.155,446 h 403.69 v 310 h -403.69 z"
         id="path260"
         inkscape:connector-curvature="0" />
    </clipPath>
    <clipPath
       clipPathUnits="userSpaceOnUse"
       id="clipPath246">
      <path
         d="m 104.155,446 h 403.69 v 310 h -403.69 z"
         id="path244"
         inkscape:connector-curvature="0" />
    </clipPath>
    <clipPath
       clipPathUnits="userSpaceOnUse"
       id="clipPath220">
      <path
         d="m 104.155,446 h 403.69 v 310 h -403.69 z"
         id="path218"
         inkscape:connector-curvature="0" />
    </clipPath>
    <clipPath
       clipPathUnits="userSpaceOnUse"
       id="clipPath200">
      <path
         d="m 104.155,446 h 403.69 v 310 h -403.69 z"
         id="path198"
         inkscape:connector-curvature="0" />
    </clipPath>
    <clipPath
       clipPathUnits="userSpaceOnUse"
       id="clipPath180">
      <path
         d="m 104.155,446 h 403.69 v 310 h -403.69 z"
         id="path178"
         inkscape:connector-curvature="0" />
    </clipPath>
    <clipPath
       clipPathUnits="userSpaceOnUse"
       id="clipPath164">
      <path
         d="m 104.155,446 h 403.69 v 310 h -403.69 z"
         id="path162"
         inkscape:connector-curvature="0" />
    </clipPath>
    <clipPath
       clipPathUnits="userSpaceOnUse"
       id="clipPath138">
      <path
         d="m 104.155,446 h 403.69 v 310 h -403.69 z"
         id="path136"
         inkscape:connector-curvature="0" />
    </clipPath>
    <clipPath
       clipPathUnits="userSpaceOnUse"
       id="clipPath118">
      <path
         d="m 104.155,446 h 403.69 v 310 h -403.69 z"
         id="path116"
         inkscape:connector-curvature="0" />
    </clipPath>
    <clipPath
       clipPathUnits="userSpaceOnUse"
       id="clipPath78">
      <path
         d="m 104.155,446 h 403.69 v 310 h -403.69 z"
         id="path76"
         inkscape:connector-curvature="0" />
    </clipPath>
  </defs>
  <sodipodi:namedview
     id="base"
     pagecolor="#ffffff"
     bordercolor="#666666"
     borderopacity="1.0"
     inkscape:pageopacity="0.0"
     inkscape:pageshadow="2"
     inkscape:zoom="0.49497475"
     inkscape:cx="-25.83256"
     inkscape:cy="140.54497"
     inkscape:document-units="mm"
     inkscape:current-layer="layer1"
     showgrid="false"
     fit-margin-top="0"
     fit-margin-left="0"
     fit-margin-right="0"
     fit-margin-bottom="0"
     inkscape:window-width="1600"
     inkscape:window-height="838"
     inkscape:window-x="-8"
     inkscape:window-y="-8"
     inkscape:window-maximized="1" />
  <metadata
     id="metadata571">
    <rdf:RDF>
      <cc:Work
         rdf:about="">
        <dc:format>image/svg+xml</dc:format>
        <dc:type
           rdf:resource="http://purl.org/dc/dcmitype/StillImage" />
        <dc:title></dc:title>
      </cc:Work>
    </rdf:RDF>
  </metadata>
  <g
     inkscape:label="Layer 1"
     inkscape:groupmode="layer"
     id="layer1"
     transform="translate(-14.665476,-75.513712)">
    <path
       d="M 14.691687,102.58163 H 150.09734 V 83.705015 H 14.691687 Z"
       style="fill:#ee2722;fill-opacity:1;fill-rule:nonzero;stroke:none;stroke-width:0.33819368"
       id="path40"
       inkscape:connector-curvature="0" />
    <path
       d="M 14.691687,122.34703 H 150.09734 V 103.47548 H 14.691687 Z"
       style="fill:#ee2722;fill-opacity:1;fill-rule:nonzero;stroke:none;stroke-width:0.33819368"
       id="path42"
       inkscape:connector-curvature="0" />
    <path
       d="M 14.691687,142.12899 H 150.09734 V 123.25135 H 14.691687 Z"
       style="fill:#ee2722;fill-opacity:1;fill-rule:nonzero;stroke:none;stroke-width:0.33819368"
       id="path44"
       inkscape:connector-curvature="0" />
    <path
       d="M 14.691687,161.89777 H 150.09734 V 143.02014 H 14.691687 Z"
       style="fill:#ee2722;fill-opacity:1;fill-rule:nonzero;stroke:none;stroke-width:0.33819368"
       id="path46"
       inkscape:connector-curvature="0" />
    <path
       d="M 14.691687,102.58163 H 150.09734 V 83.705015 H 14.691687 Z"
       style="fill:#ee2722;fill-opacity:1;fill-rule:nonzero;stroke:none;stroke-width:0.33819368"
       id="path48"
       inkscape:connector-curvature="0" />
    <g
       id="g50"
       transform="matrix(0.3381937,0,0,-0.3381937,14.691517,102.58174)">
      <path
         d="M 0,0 H 400.379 V 55.816 H 0 Z"
         style="fill:none;stroke:#ffffff;stroke-width:0.154;stroke-linecap:butt;stroke-linejoin:miter;stroke-miterlimit:10;stroke-dasharray:none;stroke-opacity:1"
         id="path52"
         inkscape:connector-curvature="0" />
    </g>
    <path
       d="M 14.691687,122.34703 H 150.09734 V 103.47548 H 14.691687 Z"
       style="fill:#ee2722;fill-opacity:1;fill-rule:nonzero;stroke:none;stroke-width:0.33819368"
       id="path54"
       inkscape:connector-curvature="0" />
    <g
       id="g56"
       transform="matrix(0.3381937,0,0,-0.3381937,14.691517,122.34693)">
      <path
         d="M 0,0 H 400.379 V 55.801 H 0 Z"
         style="fill:none;stroke:#ffffff;stroke-width:0.154;stroke-linecap:butt;stroke-linejoin:miter;stroke-miterlimit:10;stroke-dasharray:none;stroke-opacity:1"
         id="path58"
         inkscape:connector-curvature="0" />
    </g>
    <path
       d="M 14.691687,142.12899 H 150.09734 V 123.25135 H 14.691687 Z"
       style="fill:#ee2722;fill-opacity:1;fill-rule:nonzero;stroke:none;stroke-width:0.33819368"
       id="path60"
       inkscape:connector-curvature="0" />
    <g
       id="g62"
       transform="matrix(0.3381937,0,0,-0.3381937,14.691517,142.12889)">
      <path
         d="M 0,0 H 400.379 V 55.819 H 0 Z"
         style="fill:none;stroke:#ffffff;stroke-width:0.154;stroke-linecap:butt;stroke-linejoin:miter;stroke-miterlimit:10;stroke-dasharray:none;stroke-opacity:1"
         id="path64"
         inkscape:connector-curvature="0" />
    </g>
    <path
       d="M 14.691687,161.89777 H 150.09734 V 143.02014 H 14.691687 Z"
       style="fill:#ee2722;fill-opacity:1;fill-rule:nonzero;stroke:none;stroke-width:0.33819368"
       id="path66"
       inkscape:connector-curvature="0" />
    <g
       id="g68"
       transform="matrix(0.3381937,0,0,-0.3381937,14.691517,161.8977)">
      <path
         d="M 0,0 H 400.379 V 55.819 H 0 Z"
         style="fill:none;stroke:#ffffff;stroke-width:0.154;stroke-linecap:butt;stroke-linejoin:miter;stroke-miterlimit:10;stroke-dasharray:none;stroke-opacity:1"
         id="path70"
         inkscape:connector-curvature="0" />
    </g>
    <g
       transform="matrix(0.3381937,0,0,-0.3381937,-21.092926,330.65404)"
       id="g72">
      <g
         id="g74"
         clip-path="url(#clipPath78)">
        <g
           id="g80"
           transform="translate(197.0151,697.8647)">
          <path
             d="M 0,0 H 75.066 V -3.13 H 54.079 v -153.719 h 37.648 c 19.869,0 42.246,12.583 49.984,47.632 h 2.961 v -50.78 H 0 v 3.148 H 20.976 V -3.13 H 0 Z"
             style="fill:#231f20;fill-opacity:1;fill-rule:nonzero;stroke:none"
             id="path82"
             inkscape:connector-curvature="0" />
        </g>
        <g
           id="g84"
           transform="translate(197.0151,697.8647)">
          <path
             d="M 0,0 H 75.066 V -3.13 H 54.079 v -153.719 h 37.648 c 19.869,0 42.246,12.583 49.984,47.632 h 2.961 v -50.78 H 0 v 3.148 H 20.976 V -3.13 H 0 Z"
             style="fill:none;stroke:#231f20;stroke-width:0.154;stroke-linecap:butt;stroke-linejoin:miter;stroke-miterlimit:10;stroke-dasharray:none;stroke-opacity:1"
             id="path86"
             inkscape:connector-curvature="0" />
        </g>
        <g
           id="g88"
           transform="translate(376.9267,619.2706)">
          <path
             d="m 0,0 c -3.382,-5.105 -10.525,-5.251 -16.038,-5.251 -11.918,0 -17.445,4.705 -18.874,12.089 h -0.359 c -3.739,-9.48 -9.619,-12.089 -22.274,-12.089 -11.383,0 -25.286,4.016 -25.286,17.516 0,13.699 11.759,17.552 23.508,21.041 19.24,5.794 23.339,7.209 23.339,15.972 v 10.694 c 0,6.136 -2.296,12.463 -11.036,12.463 -5.537,0 -10.169,-2.097 -10.169,-8.599 0,-1.238 1.076,-8.062 1.076,-9.632 0,-7.201 -7.654,-7.201 -10.864,-7.201 -4.818,0 -10.331,1.047 -10.331,8.937 0,12.289 14.963,18.957 30.457,18.957 17.999,0 32.601,-4.911 32.601,-24.73 V 6.668 c 0,-4.389 0.724,-8.422 5.884,-8.422 2.999,0 4.8,1.208 6.762,3.303 z m -35.984,40.677 h -0.342 c -0.36,-1.401 -1.622,-2.625 -4.815,-4.185 -8.912,-4.237 -18.877,-7.028 -18.877,-21.059 0,-5.441 0.526,-16.668 11.559,-16.668 6.07,0 12.475,5.074 12.475,18.771 z"
             style="fill:#231f20;fill-opacity:1;fill-rule:nonzero;stroke:none"
             id="path90"
             inkscape:connector-curvature="0" />
        </g>
        <g
           id="g92"
           transform="translate(376.9267,619.2706)">
          <path
             d="m 0,0 c -3.382,-5.105 -10.525,-5.251 -16.038,-5.251 -11.918,0 -17.445,4.705 -18.874,12.089 h -0.359 c -3.739,-9.48 -9.619,-12.089 -22.274,-12.089 -11.383,0 -25.286,4.016 -25.286,17.516 0,13.699 11.759,17.552 23.508,21.041 19.24,5.794 23.339,7.209 23.339,15.972 v 10.694 c 0,6.136 -2.296,12.463 -11.036,12.463 -5.537,0 -10.169,-2.097 -10.169,-8.599 0,-1.238 1.076,-8.062 1.076,-9.632 0,-7.201 -7.654,-7.201 -10.864,-7.201 -4.818,0 -10.331,1.047 -10.331,8.937 0,12.289 14.963,18.957 30.457,18.957 17.999,0 32.601,-4.911 32.601,-24.73 V 6.668 c 0,-4.389 0.724,-8.422 5.884,-8.422 2.999,0 4.8,1.208 6.762,3.303 z m -35.984,40.677 h -0.342 c -0.36,-1.401 -1.622,-2.625 -4.815,-4.185 -8.912,-4.237 -18.877,-7.028 -18.877,-21.059 0,-5.441 0.526,-16.668 11.559,-16.668 6.07,0 12.475,5.074 12.475,18.771 z"
             style="fill:none;stroke:#231f20;stroke-width:0.154;stroke-linecap:butt;stroke-linejoin:miter;stroke-miterlimit:10;stroke-dasharray:none;stroke-opacity:1"
             id="path94"
             inkscape:connector-curvature="0" />
        </g>
        <g
           id="g96"
           transform="translate(389.0665,683.1517)">
          <path
             d="m 0,0 c 4.728,0 8.612,-3.818 8.612,-8.488 0,-4.655 -3.884,-8.48 -8.612,-8.48 -4.728,0 -8.626,3.825 -8.626,8.48 C -8.626,-3.818 -4.728,0 0,0 m -7.045,55.67 c -0.463,3.936 -0.844,6.333 -0.844,7.409 0,4.776 3.161,8.113 7.889,8.113 4.728,0 7.872,-3.337 7.872,-8.113 0,-1.076 -0.36,-3.473 -0.851,-7.409 L 1.2,8.252 h -2.417 z"
             style="fill:#231f20;fill-opacity:1;fill-rule:nonzero;stroke:none"
             id="path98"
             inkscape:connector-curvature="0" />
        </g>
        <g
           id="g100"
           transform="translate(389.0665,683.1517)">
          <path
             d="m 0,0 c 4.728,0 8.612,-3.818 8.612,-8.488 0,-4.655 -3.884,-8.48 -8.612,-8.48 -4.728,0 -8.626,3.825 -8.626,8.48 C -8.626,-3.818 -4.728,0 0,0 Z m -7.045,55.67 c -0.463,3.936 -0.844,6.333 -0.844,7.409 0,4.776 3.161,8.113 7.889,8.113 4.728,0 7.872,-3.337 7.872,-8.113 0,-1.076 -0.36,-3.473 -0.851,-7.409 L 1.2,8.252 h -2.417 z"
             style="fill:none;stroke:#231f20;stroke-width:0.154;stroke-linecap:butt;stroke-linejoin:miter;stroke-miterlimit:10;stroke-dasharray:none;stroke-opacity:1"
             id="path102"
             inkscape:connector-curvature="0" />
        </g>
      </g>
    </g>
    <g
       id="g104"
       transform="matrix(0.3381937,0,0,-0.3381937,15.211931,167.89262)">
      <path
         d="m 0,0 v -34.669 h 17.594 v 2.995 H 3.49 V 0 Z"
         style="fill:#231f20;fill-opacity:1;fill-rule:nonzero;stroke:none"
         id="path106"
         inkscape:connector-curvature="0" />
    </g>
    <g
       id="g108"
       transform="matrix(0.3381937,0,0,-0.3381937,26.858816,167.89262)">
      <path
         d="m 0,0 -14.419,-34.669 h 3.382 l 3.778,9.275 h 17.721 l 3.791,-9.275 h 3.634 L 3.932,0 Z M 1.698,-3.292 9.324,-22.408 H -5.953 Z"
         style="fill:#231f20;fill-opacity:1;fill-rule:nonzero;stroke:none"
         id="path110"
         inkscape:connector-curvature="0" />
    </g>
    <g
       transform="matrix(0.3381937,0,0,-0.3381937,-21.092926,330.65404)"
       id="g112">
      <g
         id="g114"
         clip-path="url(#clipPath118)">
        <g
           id="g120"
           transform="translate(189.7761,462.3969)">
          <path
             d="M 0,0 H -8.159 V 2.968 H 3.465 v -17.225 c -3.545,-1.549 -7.041,-2.134 -10.925,-2.134 -11.103,0 -17.736,7.187 -17.736,17.92 0,10.538 6.844,17.912 17.736,17.912 2.677,0 7.055,-0.429 9.432,-1.633 L 1.549,14.633 c -2.708,1.491 -5.949,1.834 -9.009,1.834 -9.127,0 -14.281,-6.33 -14.281,-14.938 0,-8.737 4.998,-14.939 14.281,-14.939 2.171,0 5.793,0.247 7.46,1.228 z"
             style="fill:#231f20;fill-opacity:1;fill-rule:nonzero;stroke:none"
             id="path122"
             inkscape:connector-curvature="0" />
        </g>
        <g
           id="g124"
           transform="translate(228.3434,458.7101)">
          <path
             d="m 0,0 c 0,-10.21 -7.602,-12.71 -12.759,-12.71 -5.14,0 -12.749,2.5 -12.749,12.71 v 22.558 h 3.48 V 0 c 0,-5.652 3.186,-9.722 9.269,-9.722 6.104,0 9.29,4.07 9.29,9.722 V 22.558 H 0 Z"
             style="fill:#231f20;fill-opacity:1;fill-rule:nonzero;stroke:none"
             id="path126"
             inkscape:connector-curvature="0" />
        </g>
      </g>
    </g>
    <g
       id="g128"
       transform="matrix(0.3381937,0,0,-0.3381937,62.934173,167.89262)">
      <path
         d="m 0,0 -14.432,-34.669 h 3.383 l 3.797,9.275 h 17.746 l 3.78,-9.275 h 3.632 L 3.932,0 Z m 1.715,-3.292 7.61,-19.116 H -5.942 Z"
         style="fill:#231f20;fill-opacity:1;fill-rule:nonzero;stroke:none"
         id="path130"
         inkscape:connector-curvature="0" />
    </g>
    <g
       transform="matrix(0.3381937,0,0,-0.3381937,-21.092926,330.65404)"
       id="g132">
      <g
         id="g134"
         clip-path="url(#clipPath138)">
        <g
           id="g140"
           transform="translate(272.455,481.2673)">
          <path
             d="m 0,0 h 9.058 c 6.26,0 10.365,-2.642 10.365,-9.003 0,-4.461 -3.486,-7.45 -7.829,-7.993 v -0.093 c 2.832,-0.336 3.454,-1.84 4.544,-4.188 l 6.004,-13.392 h -3.839 l -5.08,11.721 c -2.021,4.469 -3.536,4.624 -6.86,4.624 H 3.48 V -34.669 H 0 Z m 3.48,-15.35 h 3.679 c 4.092,0 8.778,1.546 8.778,6.347 0,5.659 -4.06,6.018 -8.871,6.018 H 3.48 Z"
             style="fill:#231f20;fill-opacity:1;fill-rule:nonzero;stroke:none"
             id="path142"
             inkscape:connector-curvature="0" />
        </g>
        <g
           id="g144"
           transform="translate(301.1029,481.2673)">
          <path
             d="m 0,0 h 8.723 c 12.607,0 17.594,-7.163 17.594,-17.283 0,-12.572 -8.533,-17.386 -20.178,-17.386 H 0 Z m 3.469,-31.674 h 2.894 c 9.968,0 16.46,3.953 16.46,14.585 0,10.577 -6.394,14.104 -14.27,14.104 H 3.469 Z"
             style="fill:#231f20;fill-opacity:1;fill-rule:nonzero;stroke:none"
             id="path146"
             inkscape:connector-curvature="0" />
        </g>
      </g>
    </g>
    <path
       d="m 92.395072,179.61978 h 1.174546 v -11.72956 h -1.174546 z"
       style="fill:#231f20;fill-opacity:1;fill-rule:nonzero;stroke:none;stroke-width:0.33819368"
       id="path148"
       inkscape:connector-curvature="0" />
    <g
       id="g150"
       transform="matrix(0.3381937,0,0,-0.3381937,100.31286,167.89262)">
      <path
         d="m 0,0 -14.426,-34.669 h 3.366 l 3.804,9.275 h 17.739 l 3.791,-9.275 h 3.622 L 3.939,0 Z m 1.698,-3.292 7.637,-19.116 h -15.28 z"
         style="fill:#231f20;fill-opacity:1;fill-rule:nonzero;stroke:none"
         id="path152"
         inkscape:connector-curvature="0" />
    </g>
    <g
       id="g154"
       transform="matrix(0.3381937,0,0,-0.3381937,117.10397,167.89262)">
      <path
         d="m 0,0 -14.419,-34.669 h 3.369 l 3.773,9.275 h 17.764 l 3.773,-9.275 h 3.652 L 3.932,0 Z M 1.715,-3.292 9.324,-22.408 H -5.953 Z"
         style="fill:#231f20;fill-opacity:1;fill-rule:nonzero;stroke:none"
         id="path156"
         inkscape:connector-curvature="0" />
    </g>
    <g
       transform="matrix(0.3381937,0,0,-0.3381937,-21.092926,330.65404)"
       id="g158">
      <g
         id="g160"
         clip-path="url(#clipPath164)">
        <g
           id="g166"
           transform="translate(432.6385,481.2673)">
          <path
             d="m 0,0 h 9.061 c 6.261,0 10.338,-2.642 10.338,-9.003 0,-4.461 -3.465,-7.45 -7.816,-7.993 v -0.093 c 2.829,-0.336 3.445,-1.84 4.534,-4.188 l 6.004,-13.392 h -3.818 l -5.091,11.721 c -2.034,4.469 -3.538,4.624 -6.865,4.624 H 3.455 V -34.669 H 0 Z m 3.455,-15.35 h 3.694 c 4.105,0 8.785,1.546 8.785,6.347 0,5.659 -4.099,6.018 -8.871,6.018 H 3.455 Z"
             style="fill:#231f20;fill-opacity:1;fill-rule:nonzero;stroke:none"
             id="path168"
             inkscape:connector-curvature="0" />
        </g>
      </g>
    </g>
    <g
       id="g170"
       transform="matrix(0.3381937,0,0,-0.3381937,133.81413,167.89262)">
      <path
         d="m 0,0 v -2.984 h 10.39 v -31.692 h 3.465 V -2.984 H 24.232 V 0 Z"
         style="fill:#231f20;fill-opacity:1;fill-rule:nonzero;stroke:none"
         id="path172"
         inkscape:connector-curvature="0" />
    </g>
    <g
       transform="matrix(0.3381937,0,0,-0.3381937,-21.092926,330.65404)"
       id="g174">
      <g
         id="g176"
         clip-path="url(#clipPath180)">
        <g
           id="g182"
           transform="translate(487.1259,451.0146)">
          <path
             d="m 0,0 c 2.058,-1.287 4.485,-2.027 7.769,-2.027 4.336,0 7.913,2.186 7.913,7.094 0,6.796 -16.128,7.65 -16.128,16.736 0,5.583 4.931,9.017 11.129,9.017 1.702,0 4.504,-0.239 6.922,-1.128 L 17.03,26.577 c -1.563,0.84 -4.019,1.272 -6.385,1.272 -3.638,0 -7.605,-1.481 -7.605,-5.949 0,-6.959 16.127,-7.004 16.127,-17.13 0,-7.001 -6.107,-9.778 -11.541,-9.778 -3.435,0 -6.118,0.695 -7.969,1.49 z"
             style="fill:#231f20;fill-opacity:1;fill-rule:nonzero;stroke:none"
             id="path184"
             inkscape:connector-curvature="0" />
        </g>
      </g>
    </g>
    <g
       id="g186"
       transform="matrix(0.3381937,0,0,-0.3381937,15.211931,167.89262)">
      <path
         d="m 0,0 v -34.669 h 17.594 v 2.995 H 3.49 V 0 Z"
         style="fill:#231f20;fill-opacity:1;fill-rule:nonzero;stroke:none"
         id="path188"
         inkscape:connector-curvature="0" />
    </g>
    <g
       id="g190"
       transform="matrix(0.3381937,0,0,-0.3381937,26.858816,167.89262)">
      <path
         d="m 0,0 -14.419,-34.669 h 3.382 l 3.778,9.275 h 17.721 l 3.791,-9.275 h 3.634 L 3.932,0 Z M 1.698,-3.292 9.324,-22.408 H -5.953 Z"
         style="fill:#231f20;fill-opacity:1;fill-rule:nonzero;stroke:none"
         id="path192"
         inkscape:connector-curvature="0" />
    </g>
    <g
       transform="matrix(0.3381937,0,0,-0.3381937,-21.092926,330.65404)"
       id="g194">
      <g
         id="g196"
         clip-path="url(#clipPath200)">
        <g
           id="g202"
           transform="translate(189.7761,462.3969)">
          <path
             d="M 0,0 H -8.159 V 2.968 H 3.465 v -17.225 c -3.545,-1.549 -7.041,-2.134 -10.925,-2.134 -11.103,0 -17.736,7.187 -17.736,17.92 0,10.538 6.844,17.912 17.736,17.912 2.677,0 7.055,-0.429 9.432,-1.633 L 1.549,14.633 c -2.708,1.491 -5.949,1.834 -9.009,1.834 -9.127,0 -14.281,-6.33 -14.281,-14.938 0,-8.737 4.998,-14.939 14.281,-14.939 2.171,0 5.793,0.247 7.46,1.228 z"
             style="fill:#231f20;fill-opacity:1;fill-rule:nonzero;stroke:none"
             id="path204"
             inkscape:connector-curvature="0" />
        </g>
        <g
           id="g206"
           transform="translate(228.3434,458.7101)">
          <path
             d="m 0,0 c 0,-10.21 -7.602,-12.71 -12.759,-12.71 -5.14,0 -12.749,2.5 -12.749,12.71 v 22.558 h 3.48 V 0 c 0,-5.652 3.186,-9.722 9.269,-9.722 6.104,0 9.29,4.07 9.29,9.722 V 22.558 H 0 Z"
             style="fill:#231f20;fill-opacity:1;fill-rule:nonzero;stroke:none"
             id="path208"
             inkscape:connector-curvature="0" />
        </g>
      </g>
    </g>
    <g
       id="g210"
       transform="matrix(0.3381937,0,0,-0.3381937,62.934173,167.89262)">
      <path
         d="m 0,0 -14.432,-34.669 h 3.383 l 3.797,9.275 h 17.746 l 3.78,-9.275 h 3.632 L 3.932,0 Z m 1.715,-3.292 7.61,-19.116 H -5.942 Z"
         style="fill:#231f20;fill-opacity:1;fill-rule:nonzero;stroke:none"
         id="path212"
         inkscape:connector-curvature="0" />
    </g>
    <g
       transform="matrix(0.3381937,0,0,-0.3381937,-21.092926,330.65404)"
       id="g214">
      <g
         id="g216"
         clip-path="url(#clipPath220)">
        <g
           id="g222"
           transform="translate(272.455,481.2673)">
          <path
             d="m 0,0 h 9.058 c 6.26,0 10.365,-2.642 10.365,-9.003 0,-4.461 -3.486,-7.45 -7.829,-7.993 v -0.093 c 2.832,-0.336 3.454,-1.84 4.544,-4.188 l 6.004,-13.392 h -3.839 l -5.08,11.721 c -2.021,4.469 -3.536,4.624 -6.86,4.624 H 3.48 V -34.669 H 0 Z m 3.48,-15.35 h 3.679 c 4.092,0 8.778,1.546 8.778,6.347 0,5.659 -4.06,6.018 -8.871,6.018 H 3.48 Z"
             style="fill:#231f20;fill-opacity:1;fill-rule:nonzero;stroke:none"
             id="path224"
             inkscape:connector-curvature="0" />
        </g>
        <g
           id="g226"
           transform="translate(301.1029,481.2673)">
          <path
             d="m 0,0 h 8.723 c 12.607,0 17.594,-7.163 17.594,-17.283 0,-12.572 -8.533,-17.386 -20.178,-17.386 H 0 Z m 3.469,-31.674 h 2.894 c 9.968,0 16.46,3.953 16.46,14.585 0,10.577 -6.394,14.104 -14.27,14.104 H 3.469 Z"
             style="fill:#231f20;fill-opacity:1;fill-rule:nonzero;stroke:none"
             id="path228"
             inkscape:connector-curvature="0" />
        </g>
      </g>
    </g>
    <path
       d="m 92.395072,179.61978 h 1.174546 v -11.72956 h -1.174546 z"
       style="fill:#231f20;fill-opacity:1;fill-rule:nonzero;stroke:none;stroke-width:0.33819368"
       id="path230"
       inkscape:connector-curvature="0" />
    <g
       id="g232"
       transform="matrix(0.3381937,0,0,-0.3381937,100.31286,167.89262)">
      <path
         d="m 0,0 -14.426,-34.669 h 3.366 l 3.804,9.275 h 17.739 l 3.791,-9.275 h 3.622 L 3.939,0 Z m 1.698,-3.292 7.637,-19.116 h -15.28 z"
         style="fill:#231f20;fill-opacity:1;fill-rule:nonzero;stroke:none"
         id="path234"
         inkscape:connector-curvature="0" />
    </g>
    <g
       id="g236"
       transform="matrix(0.3381937,0,0,-0.3381937,117.10397,167.89262)">
      <path
         d="m 0,0 -14.419,-34.669 h 3.369 l 3.773,9.275 h 17.764 l 3.773,-9.275 h 3.652 L 3.932,0 Z M 1.715,-3.292 9.324,-22.408 H -5.953 Z"
         style="fill:#231f20;fill-opacity:1;fill-rule:nonzero;stroke:none"
         id="path238"
         inkscape:connector-curvature="0" />
    </g>
    <g
       transform="matrix(0.3381937,0,0,-0.3381937,-21.092926,330.65404)"
       id="g240">
      <g
         id="g242"
         clip-path="url(#clipPath246)">
        <g
           id="g248"
           transform="translate(432.6385,481.2673)">
          <path
             d="m 0,0 h 9.061 c 6.261,0 10.338,-2.642 10.338,-9.003 0,-4.461 -3.465,-7.45 -7.816,-7.993 v -0.093 c 2.829,-0.336 3.445,-1.84 4.534,-4.188 l 6.004,-13.392 h -3.818 l -5.091,11.721 c -2.034,4.469 -3.538,4.624 -6.865,4.624 H 3.455 V -34.669 H 0 Z m 3.455,-15.35 h 3.694 c 4.105,0 8.785,1.546 8.785,6.347 0,5.659 -4.099,6.018 -8.871,6.018 H 3.455 Z"
             style="fill:#231f20;fill-opacity:1;fill-rule:nonzero;stroke:none"
             id="path250"
             inkscape:connector-curvature="0" />
        </g>
      </g>
    </g>
    <g
       id="g252"
       transform="matrix(0.3381937,0,0,-0.3381937,133.81413,167.89262)">
      <path
         d="m 0,0 v -2.984 h 10.39 v -31.692 h 3.465 V -2.984 H 24.232 V 0 Z"
         style="fill:#231f20;fill-opacity:1;fill-rule:nonzero;stroke:none"
         id="path254"
         inkscape:connector-curvature="0" />
    </g>
    <g
       transform="matrix(0.3381937,0,0,-0.3381937,-21.092926,330.65404)"
       id="g256">
      <g
         id="g258"
         clip-path="url(#clipPath262)">
        <g
           id="g264"
           transform="translate(487.1259,451.0146)">
          <path
             d="m 0,0 c 2.058,-1.287 4.485,-2.027 7.769,-2.027 4.336,0 7.913,2.186 7.913,7.094 0,6.796 -16.128,7.65 -16.128,16.736 0,5.583 4.931,9.017 11.129,9.017 1.702,0 4.504,-0.239 6.922,-1.128 L 17.03,26.577 c -1.563,0.84 -4.019,1.272 -6.385,1.272 -3.638,0 -7.605,-1.481 -7.605,-5.949 0,-6.959 16.127,-7.004 16.127,-17.13 0,-7.001 -6.107,-9.778 -11.541,-9.778 -3.435,0 -6.118,0.695 -7.969,1.49 z"
             style="fill:#231f20;fill-opacity:1;fill-rule:nonzero;stroke:none"
             id="path266"
             inkscape:connector-curvature="0" />
        </g>
      </g>
    </g>
  </g>
</svg>
